# xmcd CD database file
#
# Track frame offsets:
#	150
#	21177
#	40092
#	61082
#
# Disc length: 1065 seconds
#
# Revision: 0
# Processed by: cddbd v1.5PL3 Copyright (c) Steve Scherf et al.
# Submitted via: CDex 1.40Release
#
DISCID=27042704
DTITLE=河合美智子 - きっと明日は晴れるから
DYEAR=1998
DGENRE=Anime
TTITLE0=きっと明日は晴れるから
TTITLE1=ボンビデダーオ!!
TTITLE2=きっと明日は晴れるから （オリジナル・カラオケ）
TTITLE3=ボンビデダーオ!! （オリジナル・カラオケ）
EXTD=YEAR: 1998
EXTT0=
EXTT1=
EXTT2=
EXTT3=
PLAYORDER=
